<?xml version="1.0" encoding="utf-8"?>
<!-- Uploaded to: SVG Repo, www.svgrepo.com, Generator: SVG Repo Mixer Tools -->
<svg width="800px" height="800px" viewBox="0 0 85.749 85.749" xmlns="http://www.w3.org/2000/svg">
  <g id="egg_sunny_side_up" data-name="egg sunny side up" transform="translate(-862.141 -615.968)">
    <path id="Path_330" data-name="Path 330" d="M906.488,698.915a27.8,27.8,0,0,0,35.885-10.5.21.21,0,0,1,.03-.019,21.476,21.476,0,0,0,1.907-3.657c.058-.135.1-.275.16-.405.177-.462.355-.928.512-1.416a27.908,27.908,0,0,0,1.2-4.817c3.3-18.708,3.279-38.98-13.693-53.943-16.229-11.852-40.672-7.673-45.886-6.6a27.9,27.9,0,0,0-14.255,49.265c.058.071.1.147.165.221.437.277.858.577,1.285.856.451.327.913.637,1.388.936,12.324,8.743,21.294,22.061,21.294,22.061l.251.208a28.024,28.024,0,0,0,9.652,7.76l.07.06Z" fill="#f4f4f4"/>
    <path id="Path_331" data-name="Path 331" d="M929.333,649.313a18.488,18.488,0,1,1-18.491-18.495A18.492,18.492,0,0,1,929.333,649.313Z" fill="#ffd504"/>
    <g id="Group_128" data-name="Group 128">
      <path id="Path_332" data-name="Path 332" d="M909.834,637.626v-.472l.048.472-.264-2.909a1.425,1.425,0,0,1,.216-.008h0c1.254-.086,12.717.523,15.339,13.842h0l-2.873.551c-2.235-11.347-11.53-11.39-12.466-11.476Z" fill="#fff806"/>
    </g>
  </g>
</svg>